# xmcd
#
# Track frame offsets:
#	150
#	16164
#	33279
#	46984
#	62291
#	77100
#	94957
#	107666
#	124210
#	139765
#	154553
#	172138
#	188260
#	208903
#	225374
#	243899
#	261174
#	276196
#	296634
#	311429
#	330714
#
# Disc length: 4631 seconds
#
# Revision: 2
# Processed by: cddbd v1.5.2PL0 Copyright (c) Steve Scherf et al.
# Submitted via: EasyCDDAExtractor 2010.6.0.0
#
DISCID=1b121515
DTITLE=Various Artist - Dance floor
DYEAR=1900
DGENRE=
TTITLE0=Stopa 10
TTITLE1=Stopa 11
TTITLE2=Stopa 12
TTITLE3=Stopa 13
TTITLE4=Stopa 14
TTITLE5=Stopa 15
TTITLE6=Stopa 1
TTITLE7=Stopa 2
TTITLE8=Stopa 4
TTITLE9=Stopa 5
TTITLE10=Stopa 6
TTITLE11=Stopa 7
TTITLE12=Stopa 8
TTITLE13=Stopa 9
TTITLE14=Stopa 1
TTITLE15=Stopa 5
TTITLE16=Stopa 6
TTITLE17=Stopa 7
TTITLE18=Stopa 8
TTITLE19=Stopa 9
TTITLE20=Stopa 10
EXTD=
EXTT0=
EXTT1=
EXTT2=
EXTT3=
EXTT4=
EXTT5=
EXTT6=
EXTT7=
EXTT8=
EXTT9=
EXTT10=
EXTT11=
EXTT12=
EXTT13=
EXTT14=
EXTT15=
EXTT16=
EXTT17=
EXTT18=
EXTT19=
EXTT20=
PLAYORDER=
